<?xml version="1.0" encoding="utf-8"?>
<!-- Generator: Adobe Illustrator 18.1.1, SVG Export Plug-In . SVG Version: 6.00 Build 0)  -->
<svg version="1.1" id="Layer_1" xmlns="http://www.w3.org/2000/svg" xmlns:xlink="http://www.w3.org/1999/xlink" x="0px" y="0px"
	 viewBox="0 0 864 864" enable-background="new 0 0 864 864" xml:space="preserve">
<g display="none">
	<path display="inline" fill="none" d="M457.5,415.4c-4.4,1.6-11.4,7-17.1,5.3c-6.8-2-11.9-10.9-14.2-18c-1.8-5.7-3.3-11.8-3.3-17.9
		c0-0.5,0.1-5.9-0.2-6.1c-1-0.6-23.4,23.8-23.4,23.8c-6.6,7.2-6.5,18.8-6.5,30c0,6.5,0,11.6-1.8,17.9c-1.8,6.2-6.9,14.5-10.3,18
		c-4,4.2-7.8,9.5-11.4,13.9c-0.3,0.3-1.5,2.1-1.1,2.4c0.7,0.7,4.7-1.7,5.1-1.9c4.1-2.7,18.3-9.5,24.7-10.6
		c11.9-2.1,14.3-3.2,23.9-5.8c15.5-4.1,26.5-10.2,34.7-21.9c4.7-6.8,13.2-15.5,22.3-17.4c7.4-1.5,11.4-4.6,16.9-7.9
		c-2.1-0.6-4.1-0.2-5.6-1.3C481.7,411.9,468.8,411.3,457.5,415.4z"/>
	<path display="inline" fill="#40616F" d="M535.8,386.7l-14.3,15.2l-5.9,17.3l3.5,11.2l-5.6,16.7l0.9-6.3l2.7-10.5l-4.2-10.6
		l5.4-20.3l-13.7-32.5l-39.3,1.7l0.6-20.1l-47.1-0.2l13.3-29.4c-62.4,0-113.1,50.7-113.1,113.1c0,62.4,50.7,113.1,113.1,113.1
		c62.4,0,113.1-50.7,113.1-113.1C545.2,415.9,541.8,400.6,535.8,386.7z M478.8,427.1c-9.1,1.9-17.6,10.6-22.3,17.4
		c-8.2,11.7-19.2,17.8-34.7,21.9c-9.6,2.5-12,3.7-23.9,5.8c-6.3,1.1-20.6,7.9-24.7,10.6c-0.3,0.2-4.4,2.6-5.1,1.9
		c-0.3-0.3,0.9-2,1.1-2.4c3.5-4.4,7.3-9.7,11.4-13.9c3.3-3.5,8.5-11.8,10.3-18c1.8-6.3,1.8-11.3,1.8-17.9c0-11.2-0.1-22.8,6.5-30
		c0,0,22.3-24.4,23.4-23.8c0.2,0.1,0.2,5.5,0.2,6.1c0,6.1,1.5,12.2,3.3,17.9c2.3,7.1,7.4,16,14.2,18c5.8,1.7,12.8-3.7,17.1-5.3
		c11.3-4.1,24.2-3.6,32.6,2.4c1.5,1.1,3.5,0.6,5.6,1.3C490.2,422.5,486.2,425.5,478.8,427.1z"/>
</g>
<path fill="#00B7F1" d="M553.1,626.1"/>
<path fill="#00B7F1" d="M596.6,342.3"/>
<g>
	<path fill="#FFFFFF" d="M432,10C198.9,10,10,198.9,10,432c0,124.6,54,236.6,139.8,313.8c0.1,0,0.3-0.1,0.4-0.1
		c24.2-6,51.4-3.5,76-13.9c26.1-11,58.7-32.2,75.6-46.9c-37.6-26.6-89-55.2-112.3-115.4c-3.9-10-44.3-97.6-26.9-117.7
		c4.3-5,11.1,5.6,12.8,2.9c-6.3-24.3-22.4-74.5-12.1-74.1c13.2,0.4,22,20.2,36.4,28.6c-1.3-10.9-3-26.6-4.6-45.5
		c-1-12.6-7.4-39.1,2.4-42.9c13.1-5.1,19.2,21.4,30.7,26.6c1.9-13.8-4.3-48.3,9.7-49.1c10.9-0.6,20.6,71.3,51.5,105.2
		c4.7-8.2-10.2-26.6-0.5-30.1c12.3-4.4,20.6,15.7,26.5,27c12.9,24.5,22.9,55.7,39.9,72.9c26.9,27.1,69.4,38.5,91.2,71.6
		c1.2-26.2,10.4-13.4,17.4-22.2c8.1-10.2,10.9-26.7,20.2-32.1c9.3-5.4,17.8,2.8,24.1-13.7c8.1-21,22.5-2.9,51.3-30.2
		c20.3-19.3-10.8,41.7-16.8,62.3c-4.5,15.8-3.2,30,0.3,48.9c34.5,1.5,42.3,17.9,61.7,31.4c14.3,4.3,30.4,3.7,43.7,10.7
		c-47.5,17.7-88.2,39.7-118.9,69.2c-4,3.9-58.6,78.7-188.3,94.6c-25.5,3.1-53.4,1-76.9,8.5c-11.9,3.8-22.9,13.1-34.4,19.8
		c-3,1.8-5.9,3.7-8.7,5.8c62,35.7,133.8,56.2,210.5,56.2c233.1,0,422-188.9,422-422S665.1,10,432,10z"/>
</g>
</svg>
