<?xml version="1.0" encoding="utf-8"?>
<!-- Generator: Adobe Illustrator 15.0.2, SVG Export Plug-In  -->
<!DOCTYPE svg PUBLIC "-//W3C//DTD SVG 1.1//EN" "http://www.w3.org/Graphics/SVG/1.1/DTD/svg11.dtd" [
	<!ENTITY ns_flows "http://ns.adobe.com/Flows/1.0/">
]>
<svg version="1.1"
	 xmlns="http://www.w3.org/2000/svg" xmlns:xlink="http://www.w3.org/1999/xlink" xmlns:a="http://ns.adobe.com/AdobeSVGViewerExtensions/3.0/"
	 x="0px" y="0px" width="135px" height="81px" viewBox="-9.654 -6.261 135 81"
	 overflow="visible" enable-background="new -9.654 -6.261 135 81" xml:space="preserve">
<defs>
</defs>
<path fill="#F04C23" d="M110.013,19.872c0,0-5.227-2.403-11.466-1.313l-5.731-6.54c0,0,1.263-0.946,0.443-2.611
	c0,0-0.564-1.387-2.576-1.158c0,0-2.429-0.299-5.834,6.844c0,0-6.654,14.046-7.443,9.89c0,0-0.456-3.041,0.241-6.634
	c0,0,2.887-3.696,0.639-5.4c0,0-2.202-1.516-3.846,0.563c0,0-1.059,1.272-0.776,3.717c0,0-7.521,15.146-8.802,9.48
	c0,0-0.101-3.492-0.145-6.241c0,0,0.696-6.626-2.732-7.41c0,0-4.015-1.458-8.647,5.382c0,0-2.471-8.194-6.308-4.642
	c0,0-1.927,1.069-5.88,8.862c0,0-5.128,10.616-6.876,3.463l1.858-2.968l1.875-3.104c0,0,2.795-4.325,1.498-6.926
	c0,0-1.604-4.446-6.074-2.445c0,0-3.813,1.511-4.222,7.161c0,0-0.072,3.134,0.937,7.16l-5.495,7.964l-3.006-12.034
	c0,0,3.781-4.93-1.125-6.275c0,0-4.273-1.315-4.758,3.203c0,0,0.055,1.595,0.574,2.614c0,0-8.596,18.951-10.857,13.516
	c0,0,3.112-1.894,1.386-4.603c0,0-1.439-1.905-3.911-0.971c0,0-3.825,1.153-2.768,5.557c0,0,1.836,5.605,6.652,4.539
	c0,0,4.047-0.729,11.61-14.828l3.587,13.334c0,0-7.393,10.868-8.045,16.997c0,0-1.571,8.745,4.263,12.621
	c0,0,7.814,5.979,12.131-3.601c0,0,4.416-10.634-4.092-24.938l5.782-8.106v0.012c0,0,2.802,7.408,6.58,3.083
	c0,0,3.611-4.559,6.235-9.992c0,0,3.325-7.376,4.69-4.461c0,0,1.363,2.517-0.238,6.821c0,0-3.343,4.762-0.714,7.096
	c0,0,2.538,2.853,4.245-2.294c0,0,0.453-1.299,0.636-4c0,0,0.406-4.251,3.019-6.591c0,0,4.147-3.69,5.228-1.74
	c0,0,0.702,0.383-0.016,6.569c0,0-1.554,8.54,3.236,7.533c0,0,4.639-1.675,8.479-8.006c0,0,1.312-3.027,1.25-2.29
	c0,0-1.979,9.996,2.051,10.752c0,0,2.778,0.231,5.88-6.148c0,0,5.944-14.083,7.342-12.805l5.407,5.624c0,0-4.889,2.477-6.417,5.977
	c0,0-3.037,5.111,0.681,8.971c0,0,4.175,3.676,8.293,0.186c0,0,5.651-4.334,2.826-12.383c0,0,6.46-1.655,9.797,2.493
	c0,0-0.916,3.831,2.296,4.122c0,0,2.205,0.13,2.772-2.217C115.632,26.3,116.677,23.069,110.013,19.872 M26.35,60.343
	C24.042,67.119,19.87,62.1,19.87,62.1c-2.792-2.724-1.605-8.61-1.605-8.61C20.038,45.562,23.655,42,23.655,42
	C29.564,53.822,26.35,60.343,26.35,60.343 M32.686,22.546c0,0-1.513-5.099,0.929-7.635c0,0,1.529-1.419,2.08,0.103
	C35.695,15.014,36.36,17.141,32.686,22.546 M96.186,31.286c-3.583,2.104-4.544-1.834-4.544-1.834
	c-0.728-4.789,5.697-6.65,5.697-6.65C101.097,27.871,96.186,31.286,96.186,31.286 M79.404,1.481
	c-0.232-0.473-0.567-0.897-1.059-1.165c-1.271-0.688-2.866-0.217-3.554,1.056c-0.685,1.272-0.216,2.864,1.061,3.551
	c0.704,0.383,1.499,0.375,2.193,0.104c-0.756,0.908-1.931,1.374-2.175,1.464c-0.285,0.073-0.536,0.241-0.686,0.518
	c-0.283,0.524-0.096,1.199,0.438,1.471c0.621,0.313,1.221-0.08,1.221-0.08C81.274,4.835,79.404,1.481,79.404,1.481 M22.212,7.835
	c0.496-1.421-0.254-2.979-1.677-3.475c-1.421-0.498-2.977,0.253-3.476,1.675c-0.498,1.421,0.252,2.979,1.675,3.477
	C20.156,10.006,21.712,9.26,22.212,7.835"/>
</svg>
